<svg width="13" height="13" viewBox="0 0 13 13" fill="none" xmlns="http://www.w3.org/2000/svg">
<path d="M6.82129 0.814941C3.53724 0.814941 0.875 3.47718 0.875 6.76123C0.875 10.0453 3.53724 12.7075 6.82129 12.7075C10.1053 12.7075 12.7676 10.0453 12.7676 6.76123C12.7676 3.47718 10.1053 0.814941 6.82129 0.814941ZM6.82129 11.5566C4.17107 11.5566 2.02589 9.41186 2.02589 6.76123C2.02589 4.11103 4.17066 1.96584 6.82129 1.96584C9.47151 1.96584 11.6167 4.1106 11.6167 6.76123C11.6167 9.41145 9.47192 11.5566 6.82129 11.5566ZM9.39524 9.13342C9.16473 9.36628 8.30357 10.126 6.90008 10.126C4.92366 10.126 3.5317 8.65318 3.5317 6.73162C3.5317 4.83379 4.97691 3.3892 6.88277 3.3892C8.21423 3.3892 9.01044 4.02747 9.22275 4.2231C9.27264 4.26898 9.30467 4.33105 9.31317 4.3983C9.32167 4.46554 9.30608 4.53362 9.26917 4.59048L8.83387 5.26454C8.74177 5.4072 8.54696 5.43914 8.4143 5.33458C8.20821 5.17211 7.65149 4.79418 6.93472 4.79418C5.77656 4.79418 5.06653 5.64129 5.06653 6.71431C5.06653 7.71149 5.71123 8.72099 6.94338 8.72099C7.7264 8.72099 8.3063 8.26449 8.51929 8.06822C8.64565 7.95176 8.84528 7.97137 8.94656 8.10989L9.42286 8.76134C9.46346 8.81643 9.483 8.88424 9.47793 8.95249C9.47287 9.02074 9.44353 9.08492 9.39524 9.13342Z" fill="white"/>
</svg>
