<svg width="80" height="80" viewBox="0 0 80 80" fill="none" xmlns="http://www.w3.org/2000/svg">
<path d="M17.4935 35.0133C27.141 35.0133 34.9889 27.1654 34.9889 17.5179C34.9889 7.87042 27.141 0.0224609 17.4935 0.0224609C7.846 0.0224609 -0.00195312 7.87042 -0.00195312 17.5179C-0.00195312 27.1654 7.846 35.0133 17.4935 35.0133ZM17.4935 10.0199C21.6424 10.0199 24.9915 13.369 24.9915 17.5179C24.9915 21.6668 21.6424 25.0159 17.4935 25.0159C13.3446 25.0159 9.99544 21.6668 9.99544 17.5179C9.99544 13.369 13.3446 10.0199 17.4935 10.0199Z" fill="black"/>
<path d="M72.932 0.000110093L0.0136719 72.9185L7.08283 79.9876L80.0012 7.06927L72.932 0.000110093Z" fill="black"/>
<path d="M62.4896 45.0107C52.8421 45.0107 44.9941 52.8587 44.9941 62.5062C44.9941 72.1537 52.8421 80.0016 62.4896 80.0016C72.1371 80.0016 79.985 72.1537 79.985 62.5062C79.985 52.8587 72.1371 45.0107 62.4896 45.0107ZM62.4896 70.0042C58.3407 70.0042 54.9915 66.6551 54.9915 62.5062C54.9915 58.3573 58.3407 55.0081 62.4896 55.0081C66.6385 55.0081 69.9876 58.3573 69.9876 62.5062C69.9876 66.6551 66.6385 70.0042 62.4896 70.0042Z" fill="black"/>
</svg>
