<svg width="80" height="80" viewBox="0 0 80 80" fill="none" xmlns="http://www.w3.org/2000/svg">
<g clip-path="url(#clip0_121_192)">
<path d="M39.9993 6.6665C21.5993 6.6665 6.66602 21.5998 6.66602 39.9998C6.66602 58.3998 21.5993 73.3332 39.9993 73.3332C58.3993 73.3332 73.3327 58.3998 73.3327 39.9998C73.3327 21.5998 58.3993 6.6665 39.9993 6.6665ZM36.666 66.4332C23.4993 64.7998 13.3327 53.5998 13.3327 39.9998C13.3327 37.9332 13.5993 35.9665 14.0327 34.0332L29.9993 49.9998V53.3332C29.9993 56.9998 32.9993 59.9998 36.666 59.9998V66.4332ZM59.666 57.9665C58.7993 55.2665 56.3327 53.3332 53.3327 53.3332H49.9993V43.3332C49.9993 41.4998 48.4993 39.9998 46.666 39.9998H26.666V33.3332H33.3327C35.166 33.3332 36.666 31.8332 36.666 29.9998V23.3332H43.3327C46.9993 23.3332 49.9993 20.3332 49.9993 16.6665V15.2998C59.766 19.2665 66.666 28.8332 66.666 39.9998C66.666 46.9332 63.9993 53.2332 59.666 57.9665Z" fill="black"/>
</g>
<defs>
<clipPath id="clip0_121_192">
<rect width="80" height="80" fill="white"/>
</clipPath>
</defs>
</svg>
