<svg width="42" height="43" viewBox="0 0 42 43" fill="none" xmlns="http://www.w3.org/2000/svg">
<g clip-path="url(#clip0_10_10158)">
<path d="M42.2148 22.4324C42.2148 10.8345 32.8128 1.43237 21.2148 1.43237C9.61694 1.43237 0.214844 10.8343 0.214844 22.4324C0.214844 32.914 7.89428 41.6019 17.9336 43.1773V28.5027H12.6016V22.4324H17.9336V17.8058C17.9336 12.5427 21.0688 9.6355 25.8655 9.6355C28.1632 9.6355 30.5664 10.0457 30.5664 10.0457V15.2136H27.9184C25.3095 15.2136 24.4961 16.8324 24.4961 18.4932V22.4324H30.3203L29.3893 28.5027H24.4961V43.1773C34.5354 41.6019 42.2148 32.9142 42.2148 22.4324Z" fill="#1877F2"/>
<path d="M29.3902 28.5027L30.3213 22.4324H24.4971V18.4932C24.4971 16.8323 25.3107 15.2136 27.9194 15.2136H30.5674V10.0457C30.5674 10.0457 28.1642 9.6355 25.8665 9.6355C21.0698 9.6355 17.9346 12.5427 17.9346 17.8058V22.4324H12.6025V28.5027H17.9346V43.1773C19.02 43.3474 20.1171 43.4327 21.2158 43.4324C22.3145 43.4327 23.4116 43.3474 24.4971 43.1773V28.5027H29.3902Z" fill="white" fill-opacity="0.1"/>
</g>
<defs>
<clipPath id="clip0_10_10158">
<rect width="42" height="42" fill="white" transform="translate(0 0.676758)"/>
</clipPath>
</defs>
</svg>
