<svg width="41" height="41" viewBox="0 0 41 41" fill="none" xmlns="http://www.w3.org/2000/svg">
<path d="M31.3031 0H9.5826C4.29027 0 0 4.29027 0 9.5826V31.3031C0 36.5955 4.29027 40.8857 9.5826 40.8857H31.3031C36.5955 40.8857 40.8857 36.5955 40.8857 31.3031V9.5826C40.8857 4.29027 36.5955 0 31.3031 0Z" fill="url(#paint0_radial_2054_2093)"/>
<path d="M31.3031 0H9.5826C4.29027 0 0 4.29027 0 9.5826V31.3031C0 36.5955 4.29027 40.8857 9.5826 40.8857H31.3031C36.5955 40.8857 40.8857 36.5955 40.8857 31.3031V9.5826C40.8857 4.29027 36.5955 0 31.3031 0Z" fill="url(#paint1_radial_2054_2093)"/>
<path d="M20.4441 4.4718C16.1067 4.4718 15.5623 4.49081 13.8588 4.56827C12.1585 4.64621 10.9979 4.91532 9.98247 5.31028C8.9319 5.71818 8.04088 6.26391 7.15321 7.15189C6.26474 8.03972 5.71901 8.93074 5.30984 9.98084C4.91376 10.9966 4.64433 12.1577 4.56782 13.8572C4.49164 15.5608 4.47168 16.1054 4.47168 20.443C4.47168 24.7805 4.49084 25.3232 4.56814 27.0267C4.6464 28.7269 4.91551 29.8876 5.31016 30.903C5.71838 31.9536 6.2641 32.8446 7.15209 33.7323C8.0396 34.6207 8.93062 35.1677 9.9804 35.5756C10.9966 35.9706 12.1574 36.2397 13.8574 36.3176C15.561 36.3951 16.105 36.4141 20.4422 36.4141C24.7801 36.4141 25.3228 36.3951 27.0262 36.3176C28.7265 36.2397 29.8884 35.9706 30.9046 35.5756C31.9547 35.1677 32.8445 34.6207 33.7318 33.7323C34.6203 32.8446 35.1659 31.9536 35.5752 30.9035C35.9678 29.8876 36.2373 28.7266 36.3172 27.027C36.3937 25.3235 36.4137 24.7805 36.4137 20.443C36.4137 16.1054 36.3937 15.5611 36.3172 13.8575C36.2373 12.1572 35.9678 10.9968 35.5752 9.98132C35.1659 8.93074 34.6203 8.03972 33.7318 7.15189C32.8435 6.26359 31.955 5.71786 30.9037 5.31044C29.8855 4.91532 28.7243 4.64605 27.024 4.56827C25.3204 4.49081 24.778 4.4718 20.4392 4.4718H20.4441ZM19.0114 7.34993C19.4367 7.3493 19.9112 7.34993 20.4441 7.34993C24.7085 7.34993 25.2138 7.36527 26.8978 7.44177C28.455 7.513 29.3002 7.77317 29.8632 7.99181C30.6085 8.2812 31.1399 8.62729 31.6986 9.18644C32.2575 9.74542 32.6035 10.2777 32.8937 11.0231C33.1123 11.5853 33.3728 12.4305 33.4437 13.9876C33.5202 15.6713 33.5368 16.1769 33.5368 20.4393C33.5368 24.7016 33.5202 25.2074 33.4437 26.8909C33.3725 28.4481 33.1123 29.2933 32.8937 29.8556C32.6043 30.601 32.2575 31.1317 31.6986 31.6904C31.1396 32.2494 30.6089 32.5953 29.8632 32.8848C29.3008 33.1044 28.455 33.364 26.8978 33.4352C25.2142 33.5117 24.7085 33.5283 20.4441 33.5283C16.1795 33.5283 15.6741 33.5117 13.9906 33.4352C12.4334 33.3633 11.5882 33.1032 11.0247 32.8845C10.2795 32.595 9.74706 32.249 9.18807 31.69C8.62909 31.1311 8.28316 30.6 7.99296 29.8543C7.77432 29.292 7.51383 28.4468 7.44292 26.8896C7.36642 25.206 7.35109 24.7003 7.35109 20.4353C7.35109 16.1704 7.36642 15.6673 7.44292 13.9836C7.51415 12.4265 7.77432 11.5813 7.99296 11.0183C8.28252 10.2729 8.62909 9.74063 9.18823 9.18165C9.74722 8.62266 10.2795 8.27657 11.0249 7.98654C11.5879 7.76694 12.4334 7.50741 13.9906 7.43586C15.4639 7.36926 16.0348 7.3493 19.0114 7.34594V7.34993ZM28.9694 10.0018C27.9114 10.0018 27.0529 10.8594 27.0529 11.9176C27.0529 12.9757 27.9114 13.8342 28.9694 13.8342C30.0275 13.8342 30.8859 12.9757 30.8859 11.9176C30.8859 10.8596 30.0275 10.0011 28.9694 10.0011V10.0018ZM20.4441 12.2411C15.9147 12.2411 12.2424 15.9134 12.2424 20.443C12.2424 24.9725 15.9147 28.6431 20.4441 28.6431C24.9736 28.6431 28.6447 24.9725 28.6447 20.443C28.6447 15.9136 24.9733 12.2411 20.4438 12.2411H20.4441ZM20.4441 15.1192C23.3842 15.1192 25.7679 17.5025 25.7679 20.443C25.7679 23.3831 23.3842 25.7667 20.4441 25.7667C17.5039 25.7667 15.1205 23.3831 15.1205 20.443C15.1205 17.5025 17.5039 15.1192 20.4441 15.1192Z" fill="white"/>
<defs>
<radialGradient id="paint0_radial_2054_2093" cx="0" cy="0" r="1" gradientUnits="userSpaceOnUse" gradientTransform="translate(10.8603 44.0347) rotate(-90) scale(40.5208 37.6876)">
<stop stop-color="#FFDD55"/>
<stop offset="0.1" stop-color="#FFDD55"/>
<stop offset="0.5" stop-color="#FF543E"/>
<stop offset="1" stop-color="#C837AB"/>
</radialGradient>
<radialGradient id="paint1_radial_2054_2093" cx="0" cy="0" r="1" gradientUnits="userSpaceOnUse" gradientTransform="translate(-6.84852 2.94521) rotate(78.681) scale(18.113 74.6625)">
<stop stop-color="#3771C8"/>
<stop offset="0.128" stop-color="#3771C8"/>
<stop offset="1" stop-color="#6600FF" stop-opacity="0"/>
</radialGradient>
</defs>
</svg>
