<svg width="112" height="16" viewBox="0 0 112 16" fill="none" xmlns="http://www.w3.org/2000/svg">
<path d="M70.5169 6.35996C70.5169 7.01096 69.986 7.539 69.3315 7.539C69.2824 7.53538 69.2333 7.53176 69.1843 7.52996C69.1388 7.52815 69.0915 7.52634 69.0461 7.52634C67.828 7.52634 66.7662 8.19362 66.2117 9.18097C66.1244 9.33467 66.0499 9.49742 65.9899 9.6656C65.8772 9.98025 65.8117 10.3184 65.8026 10.671H65.8008V13.1412C65.8008 14.4342 64.7482 15.4812 63.4482 15.4812V7.52272C63.4482 6.22976 64.5009 5.18274 65.8008 5.18274V6.83375C65.8008 6.95491 65.899 7.05256 66.0208 7.05256C66.1026 7.05256 66.1717 7.00916 66.2099 6.94406V6.94586C66.2117 6.94406 66.2117 6.94044 66.2135 6.93863C66.7899 5.89161 67.9061 5.18274 69.1897 5.18274C69.2152 5.18274 69.2424 5.18274 69.2679 5.18455C69.2715 5.18455 69.2733 5.18455 69.277 5.18455C69.3624 5.18635 69.4461 5.19178 69.5297 5.20082C70.0915 5.29486 70.5169 5.77768 70.5169 6.35996Z" fill="#575757"/>
<path d="M66.2046 7.52979C66.2537 7.53163 66.3028 7.53531 66.3519 7.53899C66.301 7.53899 66.2537 7.53715 66.2046 7.52979Z" fill="#575757"/>
<path d="M23.8197 9.15383C23.7615 7.49378 23.1652 5.97297 21.4707 5.40696V5.40515C21.0199 5.25506 20.4926 5.17188 19.8763 5.17188C19.3909 5.17188 18.9327 5.21708 18.5109 5.29303C17.6528 5.44674 16.9492 5.73065 16.4692 6.02722C16.4674 6.0453 16.4674 6.06519 16.4674 6.08328C16.4674 6.18454 16.4801 6.28219 16.5038 6.37442C16.5092 6.39431 16.5147 6.4142 16.5201 6.43409C16.671 6.90788 17.1165 7.25327 17.6437 7.25327C17.7564 7.25327 17.8655 7.23699 17.9691 7.20806C17.9855 7.20263 18.0019 7.19721 18.0182 7.19359C18.4764 7.05435 18.9745 6.97117 19.4636 6.97117C21.1544 6.97117 21.4726 8.07425 21.4726 8.73429V8.89343C18.0564 8.88077 15.9038 10.1412 15.9038 12.577C15.9038 13.7398 16.5492 14.8645 17.7291 15.2967C18.0528 15.4143 18.4182 15.4812 18.82 15.4812C18.8891 15.4812 19.0618 15.4758 19.0818 15.4758C19.2454 15.4758 19.4054 15.4541 19.5563 15.4125H19.5581C20.3035 15.2063 20.8508 14.5264 20.8508 13.7199V13.7181H19.4745C19.1818 13.7036 18.9145 13.6186 18.7055 13.4559C18.4146 13.2298 18.2291 12.8555 18.2291 12.3184C18.2291 10.8446 19.8236 10.4793 21.4726 10.4956V13.1466C21.4726 14.4396 22.5252 15.4866 23.8251 15.4866V13.1466V10.8066V9.26594C23.8215 9.22616 23.8215 9.18999 23.8197 9.15383Z" fill="#575757"/>
<path d="M41.7186 9.15383C41.6604 7.49378 41.0641 5.97297 39.3697 5.40696V5.40515C38.9188 5.25506 38.3915 5.17188 37.7752 5.17188C37.2898 5.17188 36.8316 5.21708 36.4098 5.29303C35.5517 5.44674 34.8481 5.73065 34.3682 6.02722C34.3663 6.0453 34.3663 6.06519 34.3663 6.08328C34.3663 6.18454 34.3791 6.28219 34.4027 6.37442C34.4082 6.39431 34.4136 6.4142 34.4191 6.43409C34.57 6.90788 35.0154 7.25327 35.5426 7.25327C35.6554 7.25327 35.7644 7.23699 35.8681 7.20806C35.8844 7.20263 35.9008 7.19721 35.9172 7.19359C36.3753 7.05435 36.8735 6.97117 37.3625 6.97117C39.0533 6.97117 39.3715 8.07425 39.3715 8.73429V8.89343C35.9553 8.88077 33.8027 10.1412 33.8027 12.577C33.8027 13.7398 34.4482 14.8645 35.6281 15.2967C35.9517 15.4143 36.3171 15.4812 36.7189 15.4812C36.788 15.4812 36.9607 15.4758 36.9807 15.4758C37.1444 15.4758 37.3043 15.4541 37.4552 15.4125H37.4571C38.2025 15.2063 38.7497 14.5264 38.7497 13.7199V13.7181H37.3734C37.0807 13.7036 36.8135 13.6186 36.6044 13.4559C36.3135 13.2298 36.1281 12.8555 36.1281 12.3184C36.1281 10.8446 37.7225 10.4793 39.3715 10.4956V13.1466C39.3715 14.4396 40.4242 15.4866 41.7241 15.4866V13.1466V10.8066V9.26594C41.7204 9.22616 41.7204 9.18999 41.7186 9.15383Z" fill="#575757"/>
<path d="M61.4994 9.16298C61.4412 7.50293 60.8449 5.98212 59.1504 5.41611V5.41431C58.6995 5.26421 58.1723 5.18103 57.556 5.18103C57.0706 5.18103 56.6124 5.22624 56.1906 5.30219C55.3325 5.4559 54.6289 5.73981 54.1489 6.03637C54.1471 6.05446 54.1471 6.07435 54.1471 6.09243C54.1471 6.1937 54.1598 6.29135 54.1835 6.38357C54.1889 6.40346 54.1944 6.42336 54.1998 6.44325C54.3507 6.91703 54.7961 7.26242 55.3234 7.26242C55.4361 7.26242 55.5452 7.24615 55.6488 7.21721C55.6652 7.21179 55.6815 7.20636 55.6979 7.20275C56.1561 7.06351 56.6542 6.98032 57.1433 6.98032C58.8341 6.98032 59.1523 8.08341 59.1523 8.74345V8.90258C55.7361 8.88992 53.5835 10.1503 53.5835 12.5862C53.5835 13.7489 54.2289 14.8737 55.4088 15.3059C55.7325 15.4234 56.0979 15.4903 56.4997 15.4903C56.5688 15.4903 56.7415 15.4849 56.7615 15.4849C56.9251 15.4849 57.0851 15.4632 57.236 15.4216H57.2378C57.9832 15.2155 58.5305 14.5355 58.5305 13.729V13.7272H57.1542C56.8615 13.7128 56.5942 13.6278 56.3851 13.465C56.0942 13.239 55.9106 12.8646 55.9106 12.3276C55.9106 10.8538 57.5051 10.4885 59.1541 10.5048V13.1558C59.1541 14.4487 60.2067 15.4958 61.5066 15.4958V13.1558V10.8158V9.2751C61.503 9.23532 61.5012 9.19915 61.4994 9.16298Z" fill="#575757"/>
<path d="M100.647 2.8518V10.8121V13.1521V15.4921C101.947 15.4921 103 14.445 103 13.1521V5.19179V2.8518V0.51001C101.7 0.51001 100.647 1.55884 100.647 2.8518Z" fill="#575757"/>
<path d="M96.4023 2.84948V10.8098V13.1498V15.4897C97.7023 15.4897 98.7549 14.4427 98.7549 13.1498V5.18947V2.84948V0.50769C97.4568 0.50769 96.4023 1.55652 96.4023 2.84948Z" fill="#575757"/>
<path d="M93.2935 2.84767C93.9431 2.84767 94.4698 2.32385 94.4698 1.67768C94.4698 1.03151 93.9431 0.50769 93.2935 0.50769C92.6438 0.50769 92.1172 1.03151 92.1172 1.67768C92.1172 2.32385 92.6438 2.84767 93.2935 2.84767Z" fill="#575757"/>
<path d="M92.1172 7.5298V10.8083V13.1483V15.4883C93.4171 15.4883 94.4698 14.4413 94.4698 13.1483V9.8716V7.5298V5.18982C93.1717 5.18982 92.1172 6.23684 92.1172 7.5298Z" fill="#575757"/>
<path d="M73.1055 2.84084C73.7551 2.84084 74.2818 2.31702 74.2818 1.67085C74.2818 1.02468 73.7551 0.500854 73.1055 0.500854C72.4558 0.500854 71.9292 1.02468 71.9292 1.67085C71.9292 2.31702 72.4558 2.84084 73.1055 2.84084Z" fill="#575757"/>
<path d="M71.9292 7.52284V10.8014V13.1413V15.4813C73.2291 15.4813 74.2818 14.4343 74.2818 13.1413V9.86283V7.52284V5.18286C72.9819 5.18286 71.9292 6.22989 71.9292 7.52284Z" fill="#575757"/>
<path d="M111.747 12.4339C111.747 12.9565 111.627 13.4213 111.391 13.8155C111.16 14.1988 110.849 14.5207 110.465 14.7739C110.093 15.018 109.662 15.2007 109.182 15.3182C108.714 15.4339 108.22 15.4918 107.711 15.4918C107.685 15.4918 107.66 15.4918 107.635 15.4918H104.851C104.851 14.3779 105.758 13.4737 106.88 13.4737H107.807C107.838 13.4737 107.869 13.4755 107.9 13.4755C109.453 13.4755 109.453 12.8462 109.453 12.5768C109.453 12.4086 109.42 12.273 109.349 12.1663C109.267 12.0397 109.149 11.924 109.004 11.8227C108.84 11.7088 108.64 11.6039 108.413 11.5098C108.16 11.4068 107.885 11.2965 107.596 11.1862C107.173 11.0198 106.798 10.8498 106.478 10.6798C106.136 10.499 105.846 10.2892 105.613 10.0559C105.369 9.81363 105.182 9.53153 105.057 9.2205C104.933 8.91308 104.871 8.55503 104.871 8.15539C104.871 7.65629 104.989 7.20601 105.224 6.8136C105.451 6.43566 105.756 6.11378 106.133 5.8588C106.498 5.61106 106.918 5.423 107.382 5.29822C107.836 5.17525 108.311 5.11377 108.793 5.11377H111.327C111.327 6.2277 110.418 7.13187 109.298 7.13187H108.74C108.693 7.13006 108.644 7.13006 108.594 7.13006C108.356 7.13006 108.14 7.15719 107.955 7.20963C107.776 7.26026 107.625 7.32898 107.504 7.41578C107.393 7.49535 107.309 7.58576 107.251 7.69245C107.195 7.79372 107.169 7.90403 107.169 8.0288C107.169 8.2006 107.198 8.34165 107.253 8.44472C107.313 8.55503 107.404 8.6563 107.525 8.74671C107.667 8.8534 107.845 8.95105 108.055 9.03966C108.287 9.13731 108.56 9.24762 108.864 9.36697C109.28 9.5261 109.662 9.69247 109.996 9.86245C110.349 10.0415 110.656 10.2476 110.911 10.4755C111.178 10.716 111.387 10.9981 111.531 11.3145C111.672 11.6328 111.747 12.0089 111.747 12.4339Z" fill="#575757"/>
<path d="M87.9252 4.94766V5.6511V6.3654V6.70175V7.06884V7.29488V7.40519V7.99832V8.24968V8.93323L85.3417 7.99832L84.7545 8.21171L82.7582 8.93504V5.18998V2.84999V2.34547V2.35813C82.7619 1.84637 82.9728 1.38524 83.3109 1.0507C83.4382 0.925927 83.5836 0.817427 83.7418 0.732435C83.7436 0.730627 83.8709 0.656485 83.8654 0.51001H82.7582C82.7564 0.51001 82.7546 0.51001 82.7528 0.51001H82.7346C81.4456 0.522668 80.4038 1.56427 80.4038 2.84999V10.8103V13.1503V15.4902C81.7037 15.4902 82.7564 14.4432 82.7564 13.1503V11.4269L84.6636 10.7361L85.3399 10.492L86.0162 10.7361L87.9234 11.4269V13.1503V15.4902C89.2233 15.4902 90.2759 14.4432 90.2759 13.1503V8.95493V8.25149V8.00013V7.407V7.29669V7.07065V6.70355V6.3672V5.66015V5.6511V4.94766V3.31835V3.31112V2.60768C88.9797 2.60768 87.9252 3.6547 87.9252 4.94766Z" fill="#575757"/>
<path d="M12.2875 3.35266L10.624 5.00729L8.96041 6.66191L7.66595 7.94944L6.93144 7.21888V7.22069L6.36966 6.66191L4.70612 5.00729L3.04259 3.35266L2.60625 2.91866L2.24809 2.56242L2.25718 2.57146C1.8972 2.20798 1.71721 1.73239 1.71903 1.25861C1.71903 1.08139 1.7463 0.902367 1.79721 0.730575C1.79721 0.726958 1.83357 0.585909 1.7263 0.48645L0.942716 1.26584C0.940898 1.26765 0.940897 1.26765 0.939079 1.26946L0.926351 1.28212C0.0245878 2.19713 0.028226 3.66731 0.942716 4.57509L6.60056 10.2026L7.66231 11.2587L7.66595 11.2623L9.32948 9.60769L11.6639 7.28579V8.22069V8.37802V9.66736V9.82469V9.83735V10.5607V10.718V11.2551V11.5914V12.0073V12.1647V12.1846V12.9025V13.0598V13.1412V14.3491V14.5065V15.4812C12.9638 15.4812 14.0165 14.4341 14.0165 13.1412V12.1864V12.1665V12.0092V11.5932V11.2569V10.7198V10.5625V9.83915V8.88797V8.73065V7.49555V7.43769V7.28036V6.54256V6.38524V5.09589V4.93857V4.20438V4.04706V2.75772V2.60039C13.3329 2.60039 12.7165 2.88973 12.2875 3.35266Z" fill="#575757"/>
<path d="M1.30811 6.79199V7.49543V9.13198V9.83542V10.5497V10.8861V11.2532V11.4792V11.5895V12.1826V12.434V13.1374C1.30811 14.4304 2.36077 15.4774 3.66069 15.4774V14.774V13.1374V12.434V12.1826V11.5895V11.4792V11.2532V10.8861V10.5497V9.83542V9.13198C3.66069 7.83902 2.60803 6.79199 1.30811 6.79199Z" fill="#575757"/>
<path d="M30.0354 13.481C29.7863 13.2857 29.6136 12.9837 29.5682 12.5624C29.5645 12.5262 29.5645 9.5696 29.5645 6.58946H30.0518C31.3499 6.58946 32.4044 5.54244 32.4044 4.24948H30.0518H29.5664C29.5664 2.15 29.5682 0.477295 29.5682 0.477295C28.2701 0.477295 27.2156 1.52432 27.2156 2.81728V4.24948H26.732C25.4339 4.24948 24.3794 5.2965 24.3794 6.58946H26.732H27.2156V12.5986C27.2156 13.5769 27.6683 14.5262 28.5101 15.0669C28.6755 15.1736 28.8573 15.264 29.0518 15.3364C29.3791 15.4557 29.7463 15.5226 30.15 15.5226C30.2209 15.5226 30.3936 15.5172 30.4136 15.5172C30.579 15.5172 30.739 15.4955 30.8899 15.4539H30.8917C31.6426 15.246 32.1916 14.5624 32.1935 13.7505V13.7487H30.8081C30.5154 13.7306 30.2463 13.6438 30.0354 13.481Z" fill="#575757"/>
<path d="M51.6761 11.7594V10.8028V9.26213C51.6761 9.22597 51.6742 9.1898 51.6724 9.15363C51.6142 7.49358 51.0179 5.97277 49.3217 5.40677V5.40496C48.8708 5.25487 48.3435 5.17168 47.7272 5.17168C47.2418 5.17168 46.7836 5.21689 46.3618 5.29284C46.2491 5.31273 46.1418 5.33443 46.0346 5.35975V5.18615V0.502563C44.7347 0.502563 43.6802 1.75936 43.6802 3.31091V5.18434V7.99449V9.39776V9.86793V10.801V14.0795V15.4828C44.9801 15.4828 46.0346 14.226 46.0346 12.6745V10.801V7.14457C46.4455 7.03427 46.8836 6.96917 47.3127 6.96917C49.0035 6.96917 49.3198 8.06502 49.3198 8.72687V9.86612V11.7594V13.1446V15.4846C50.6198 15.4846 51.6724 14.4376 51.6724 13.1446V11.7594H51.6761Z" fill="#575757"/>
</svg>
