<svg width="81" height="80" viewBox="0 0 81 80" fill="none" xmlns="http://www.w3.org/2000/svg">
<path d="M40.5 0C18.42 0 0.5 17.92 0.5 40C0.5 62.08 18.42 80 40.5 80C62.58 80 80.5 62.08 80.5 40C80.5 17.92 62.58 0 40.5 0ZM46.14 64.36V72H35.46V64.28C28.62 62.84 22.82 58.44 22.38 50.68H30.22C30.62 54.88 33.5 58.16 40.82 58.16C48.66 58.16 50.42 54.24 50.42 51.8C50.42 48.48 48.66 45.36 39.74 43.24C29.82 40.84 23.02 36.76 23.02 28.56C23.02 21.68 28.58 17.2 35.46 15.72V8H46.14V15.8C53.58 17.6 57.3 23.24 57.54 29.36H49.7C49.5 24.92 47.14 21.88 40.82 21.88C34.82 21.88 31.22 24.6 31.22 28.44C31.22 31.8 33.82 34 41.9 36.08C49.98 38.16 58.62 41.64 58.62 51.72C58.58 59.04 53.1 63.04 46.14 64.36Z" fill="#3F2AFF"/>
</svg>
