<svg width="81" height="80" viewBox="0 0 81 80" fill="none" xmlns="http://www.w3.org/2000/svg">
<g clip-path="url(#clip0_151_101)">
<path d="M60.4994 36.6668V43.3335H73.8327V36.6668H60.4994ZM53.8327 58.7002C57.0327 61.0668 61.1994 64.2002 64.4994 66.6668C65.8327 64.9002 67.166 63.1002 68.4994 61.3335C65.1994 58.8668 61.0327 55.7335 57.8327 53.3335C56.4994 55.1335 55.166 56.9335 53.8327 58.7002ZM68.4994 18.6668C67.166 16.9002 65.8327 15.1002 64.4994 13.3335C61.1994 15.8002 57.0327 18.9335 53.8327 21.3335C55.166 23.1002 56.4994 24.9002 57.8327 26.6668C61.0327 24.2668 65.1994 21.1668 68.4994 18.6668ZM13.8327 30.0002C10.166 30.0002 7.16602 33.0002 7.16602 36.6668V43.3335C7.16602 47.0002 10.166 50.0002 13.8327 50.0002H17.166V63.3335H23.8327V50.0002H27.166L43.8327 60.0002V20.0002L27.166 30.0002H13.8327ZM52.166 40.0002C52.166 35.5668 50.2327 31.5668 47.166 28.8335V51.1335C50.2327 48.4335 52.166 44.4335 52.166 40.0002Z" fill="#331CFE"/>
</g>
<defs>
<clipPath id="clip0_151_101">
<rect width="80" height="80" fill="white" transform="translate(0.5)"/>
</clipPath>
</defs>
</svg>
