<svg width="50" height="50" viewBox="0 0 50 50" fill="none" xmlns="http://www.w3.org/2000/svg">
<path d="M41.875 14.4584C41.875 15.5834 41.2708 16.6042 40.3125 17.125L36.6875 19.0834L33.6042 20.7292L27.2083 24.1875C26.5208 24.5625 25.7708 24.75 25 24.75C24.2292 24.75 23.4792 24.5625 22.7917 24.1875L9.6875 17.125C8.72917 16.6042 8.125 15.5834 8.125 14.4584C8.125 13.3334 8.72917 12.3125 9.6875 11.7917L13.7917 9.58335L17.0625 7.81252L22.7917 4.72919C24.1667 3.97919 25.8333 3.97919 27.2083 4.72919L40.3125 11.7917C41.2708 12.3125 41.875 13.3334 41.875 14.4584Z" fill="white"/>
<path d="M20.6243 26.6458L8.43685 20.5625C7.49935 20.0833 6.41602 20.1458 5.52018 20.6875C4.62435 21.2292 4.10352 22.1875 4.10352 23.2292V34.75C4.10352 36.75 5.20768 38.5417 6.99935 39.4375L19.1868 45.5208C19.6035 45.7292 20.0618 45.8333 20.5202 45.8333C21.0618 45.8333 21.6035 45.6875 22.0827 45.375C22.9785 44.8333 23.4993 43.875 23.4993 42.8333V31.3125C23.5202 29.3333 22.416 27.5417 20.6243 26.6458Z" fill="white"/>
<path d="M45.8952 23.2292V34.75C45.8952 36.7292 44.791 38.5208 42.9993 39.4167L30.8118 45.5208C30.3952 45.7292 29.9368 45.8333 29.4785 45.8333C28.9368 45.8333 28.3952 45.6875 27.8952 45.375C27.0202 44.8333 26.4785 43.875 26.4785 42.8333V31.3333C26.4785 29.3333 27.5827 27.5417 29.3743 26.6458L33.8535 24.4167L36.9785 22.8542L41.5619 20.5625C42.4994 20.0833 43.5827 20.125 44.4785 20.6875C45.3535 21.2292 45.8952 22.1875 45.8952 23.2292Z" fill="white"/>
<path d="M36.6868 19.0833L33.6035 20.7292L13.791 9.58333L17.0618 7.8125L36.1869 18.6042C36.3952 18.7292 36.5618 18.8958 36.6868 19.0833Z" fill="white"/>
<path d="M36.9785 22.8542V27.5834C36.9785 28.4375 36.2702 29.1459 35.416 29.1459C34.5618 29.1459 33.8535 28.4375 33.8535 27.5834V24.4167L36.9785 22.8542Z" fill="white"/>
</svg>
