<svg width="50" height="50" viewBox="0 0 50 50" fill="none" xmlns="http://www.w3.org/2000/svg">
<path d="M35.4927 0H14.5322C5.4277 0 0 5.425 0 14.525V35.45C0 44.575 5.4277 50 14.5322 50H35.4677C44.5722 50 49.9999 44.575 49.9999 35.475V14.525C50.0249 5.425 44.5972 0 35.4927 0ZM29.8149 36.575H17.5087C16.4832 36.575 15.6328 35.725 15.6328 34.7C15.6328 33.675 16.4832 32.825 17.5087 32.825H29.8149C33.0165 32.825 35.6428 30.225 35.6428 27C35.6428 23.775 33.0415 21.175 29.8149 21.175H17.1335L17.7839 21.825C18.5092 22.55 18.5092 23.75 17.7839 24.475C17.4087 24.85 16.9334 25.025 16.4582 25.025C15.983 25.025 15.5077 24.85 15.1325 24.475L11.2056 20.55C10.4802 19.825 10.4802 18.625 11.2056 17.9L15.1325 13.975C15.8579 13.25 17.0585 13.25 17.7839 13.975C18.5092 14.7 18.5092 15.9 17.7839 16.625L16.9334 17.45H29.8149C35.0925 17.45 39.3946 21.75 39.3946 27.025C39.3946 32.3 35.0925 36.575 29.8149 36.575Z" fill="#1666DD"/>
</svg>
