<svg width="17" height="17" viewBox="0 0 17 17" fill="none" xmlns="http://www.w3.org/2000/svg">
<path d="M13.6 13.6C12.6565 13.6 11.9 14.3565 11.9 15.3C11.9 15.7509 12.0791 16.1833 12.3979 16.5021C12.7167 16.8209 13.1491 17 13.6 17C14.0509 17 14.4833 16.8209 14.8021 16.5021C15.1209 16.1833 15.3 15.7509 15.3 15.3C15.3 14.3565 14.535 13.6 13.6 13.6ZM0 0V1.7H1.7L4.76 8.1515L3.604 10.234C3.4765 10.472 3.4 10.7525 3.4 11.05C3.4 11.5009 3.57911 11.9333 3.89792 12.2521C4.21673 12.5709 4.64913 12.75 5.1 12.75H15.3V11.05H5.457C5.40064 11.05 5.34659 11.0276 5.30674 10.9878C5.26689 10.9479 5.2445 10.8939 5.2445 10.8375C5.2445 10.795 5.253 10.761 5.27 10.7355L6.035 9.35H12.3675C13.005 9.35 13.566 8.993 13.855 8.4745L16.898 2.975C16.9575 2.839 17 2.6945 17 2.55C17 2.32457 16.9104 2.10837 16.751 1.94896C16.5916 1.78955 16.3754 1.7 16.15 1.7H3.5785L2.7795 0M5.1 13.6C4.1565 13.6 3.4 14.3565 3.4 15.3C3.4 15.7509 3.57911 16.1833 3.89792 16.5021C4.21673 16.8209 4.64913 17 5.1 17C5.55087 17 5.98327 16.8209 6.30208 16.5021C6.62089 16.1833 6.8 15.7509 6.8 15.3C6.8 14.3565 6.035 13.6 5.1 13.6Z" fill="white"/>
</svg>
