<svg width="200" height="57" viewBox="0 0 200 57" fill="none" xmlns="http://www.w3.org/2000/svg">
<path d="M29.6434 0.286469C30.5396 -0.288523 31.7356 0.0322369 32.2245 0.978646L34.4814 5.34822C34.8057 5.97605 35.4656 6.35736 36.171 6.32452L41.0805 6.09594C42.1438 6.04644 43.0194 6.92277 42.9699 7.987L42.7416 12.9006C42.7087 13.6066 43.0897 14.267 43.717 14.5916L48.083 16.8504C49.0286 17.3397 49.3491 18.5368 48.7745 19.4337L46.122 23.5747C45.7409 24.1696 45.7409 24.9323 46.122 25.5273L48.7745 29.6683C49.3491 30.5652 49.0286 31.7622 48.083 32.2515L43.717 34.5103C43.0897 34.8349 42.7087 35.4953 42.7416 36.2013L42.9699 41.1149C43.0194 42.1791 42.1438 43.0555 41.0805 43.006L36.171 42.7774C35.4656 42.7446 34.8057 43.1259 34.4814 43.7537L32.2245 48.1233C31.7356 49.0697 30.5395 49.3904 29.6434 48.8154L25.5059 46.1607C24.9114 45.7793 24.1494 45.7793 23.5549 46.1607L19.4174 48.8154C18.5212 49.3904 17.3251 49.0697 16.8363 48.1233L14.5794 43.7537C14.2551 43.1259 13.5952 42.7446 12.8898 42.7774L7.98031 43.006C6.91697 43.0555 6.04137 42.1792 6.09084 41.1149L6.31922 36.2013C6.35204 35.4953 5.97104 34.8349 5.34374 34.5103L0.977825 32.2515C0.0322085 31.7622 -0.288281 30.5652 0.28623 29.6683L2.93875 25.5273C3.31987 24.9323 3.31987 24.1696 2.93875 23.5747L0.28623 19.4337C-0.288281 18.5368 0.0322097 17.3397 0.977826 16.8504L5.34375 14.5916C5.97104 14.267 6.35204 13.6066 6.31922 12.9006L6.09084 7.987C6.04137 6.92277 6.91697 6.04644 7.98031 6.09594L12.8898 6.32452C13.5952 6.35737 14.2551 5.97605 14.5794 5.34822L16.8363 0.978645C17.3251 0.032236 18.5212 -0.288522 19.4174 0.28647L23.5549 2.94122C24.1494 3.32265 24.9114 3.32265 25.5059 2.94122L29.6434 0.286469Z" fill="#1666DD"/>
<path d="M36.8731 7.52228C37.7693 6.94729 38.9654 7.26805 39.4542 8.21446L41.7112 12.584C42.0354 13.2119 42.6954 13.5932 43.4007 13.5603L48.3102 13.3318C49.3736 13.2822 50.2492 14.1586 50.1997 15.2228L49.9713 20.1364C49.9385 20.8424 50.3195 21.5028 50.9468 21.8274L55.3127 24.0862C56.2583 24.5755 56.5788 25.7726 56.0043 26.6695L53.3518 30.8105C52.9707 31.4055 52.9707 32.1681 53.3518 32.7631L56.0043 36.9041C56.5788 37.801 56.2583 38.9981 55.3127 39.4873L50.9468 41.7461C50.3195 42.0707 49.9385 42.7312 49.9713 43.4371L50.1997 48.3507C50.2492 49.415 49.3736 50.2913 48.3102 50.2418L43.4007 50.0132C42.6954 49.9804 42.0354 50.3617 41.7112 50.9895L39.4542 55.3591C38.9654 56.3055 37.7693 56.6263 36.8731 56.0513L32.7356 53.3965C32.1411 53.0151 31.3791 53.0151 30.7847 53.3965L26.6471 56.0513C25.751 56.6263 24.5549 56.3055 24.0661 55.3591L21.8091 50.9895C21.4848 50.3617 20.8249 49.9804 20.1195 50.0132L15.2101 50.2418C14.1467 50.2913 13.2711 49.415 13.3206 48.3507L13.549 43.4371C13.5818 42.7312 13.2008 42.0707 12.5735 41.7461L8.20757 39.4873C7.26196 38.9981 6.94147 37.801 7.51598 36.9041L10.1685 32.7631C10.5496 32.1681 10.5496 31.4055 10.1685 30.8105L7.51598 26.6695C6.94147 25.7726 7.26196 24.5755 8.20757 24.0862L12.5735 21.8274C13.2008 21.5028 13.5818 20.8424 13.549 20.1364L13.3206 15.2228C13.2711 14.1586 14.1467 13.2822 15.2101 13.3318L20.1195 13.5603C20.8249 13.5932 21.4848 13.2119 21.8091 12.584L24.0661 8.21446C24.5549 7.26805 25.751 6.94729 26.6471 7.52228L30.7847 10.177C31.3791 10.5585 32.1411 10.5585 32.7356 10.177L36.8731 7.52228Z" fill="#E00000"/>
<path d="M196.719 25.0445C196.541 24.8663 196.211 24.6245 195.727 24.319C195.27 24.0136 194.697 23.7209 194.011 23.4409C193.349 23.1609 192.625 22.9191 191.836 22.7154C191.048 22.4864 190.247 22.3718 189.433 22.3718C188.009 22.3718 186.928 22.6391 186.19 23.1736C185.478 23.7081 185.122 24.459 185.122 25.4263C185.122 26.1644 185.351 26.7499 185.809 27.1826C186.267 27.6153 186.953 27.9844 187.869 28.2898C188.784 28.5953 189.929 28.9262 191.302 29.2825C193.082 29.7152 194.621 30.2498 195.918 30.8861C197.241 31.497 198.245 32.3115 198.932 33.3297C199.644 34.3224 200 35.646 200 37.3005C200 38.7513 199.733 39.9986 199.199 41.0422C198.665 42.0603 197.927 42.8876 196.986 43.5239C196.045 44.1602 194.977 44.6311 193.782 44.9366C192.586 45.2166 191.315 45.3566 189.967 45.3566C188.619 45.3566 187.271 45.2166 185.923 44.9366C184.575 44.6566 183.278 44.2621 182.032 43.753C180.786 43.2185 179.641 42.5821 178.599 41.844L180.926 37.3005C181.155 37.5295 181.562 37.835 182.146 38.2168C182.731 38.5731 183.444 38.9422 184.283 39.324C185.122 39.6804 186.038 39.9858 187.029 40.2404C188.021 40.4949 189.026 40.6222 190.043 40.6222C191.467 40.6222 192.548 40.3804 193.286 39.8967C194.023 39.4131 194.392 38.7259 194.392 37.835C194.392 37.0205 194.1 36.3841 193.515 35.9259C192.93 35.4678 192.116 35.0732 191.073 34.7423C190.031 34.386 188.797 34.0042 187.373 33.5969C185.669 33.1133 184.245 32.5788 183.1 31.9933C181.956 31.3824 181.104 30.6188 180.544 29.7025C179.985 28.7862 179.705 27.6407 179.705 26.2662C179.705 24.4081 180.137 22.8554 181.002 21.6082C181.892 20.3355 183.087 19.381 184.588 18.7447C186.088 18.0829 187.754 17.752 189.585 17.752C190.857 17.752 192.052 17.8919 193.171 18.1719C194.316 18.4519 195.384 18.821 196.376 19.2792C197.368 19.7373 198.258 20.2337 199.046 20.7682L196.719 25.0445Z" fill="#1666DD"/>
<path d="M151.114 38.2411C151.114 39.7963 150.713 41.1052 149.91 42.1679C149.107 43.2047 148.019 43.9953 146.647 44.5396C145.3 45.0839 143.824 45.3561 142.218 45.3561H128.894V17.7515H143.655C144.95 17.7515 146.064 18.1014 146.996 18.8012C147.955 19.4751 148.68 20.3564 149.172 21.445C149.69 22.5078 149.949 23.6223 149.949 24.7887C149.949 26.1106 149.612 27.3677 148.939 28.56C148.265 29.7523 147.281 30.6336 145.986 31.2039C147.566 31.6704 148.809 32.5128 149.716 33.731C150.648 34.9493 151.114 36.4526 151.114 38.2411ZM145.714 37.2302C145.714 36.5304 145.572 35.9083 145.287 35.364C145.002 34.7938 144.614 34.3531 144.122 34.0421C143.655 33.7051 143.112 33.5366 142.49 33.5366H134.254V40.8071H142.218C142.866 40.8071 143.448 40.6516 143.966 40.3406C144.51 40.0036 144.937 39.563 145.248 39.0187C145.559 38.4744 145.714 37.8782 145.714 37.2302ZM134.254 22.3393V29.2987H141.402C141.998 29.2987 142.542 29.1562 143.034 28.8711C143.526 28.586 143.914 28.1842 144.199 27.6658C144.51 27.1474 144.666 26.5253 144.666 25.7996C144.666 25.0997 144.523 24.4906 144.238 23.9722C143.979 23.4538 143.617 23.0521 143.15 22.767C142.71 22.4818 142.205 22.3393 141.635 22.3393H134.254Z" fill="#1666DD"/>
<path d="M77.3818 45.3561V17.7515H89.5798C90.8489 17.7515 92.0143 18.0107 93.0761 18.5291C94.1638 19.0475 95.0961 19.7473 95.8731 20.6286C96.6759 21.5098 97.2845 22.4948 97.6989 23.5834C98.1392 24.6721 98.3593 25.7866 98.3593 26.9271C98.3593 28.0935 98.1521 29.221 97.7377 30.3096C97.3493 31.3723 96.7795 32.3054 96.0285 33.109C95.2774 33.9125 94.3969 34.5346 93.3869 34.9752L99.6801 45.3561H93.7753L88.1037 36.1027H82.7427V45.3561H77.3818ZM82.7427 31.3983H89.4633C90.1367 31.3983 90.7323 31.2039 91.2503 30.8151C91.7682 30.4003 92.1826 29.856 92.4934 29.1821C92.8042 28.5082 92.9595 27.7565 92.9595 26.9271C92.9595 26.0458 92.7783 25.2812 92.4157 24.6332C92.0531 23.9593 91.5869 23.4279 91.0172 23.0391C90.4733 22.6503 89.8777 22.4559 89.2302 22.4559H82.7427V31.3983Z" fill="#1666DD"/>
<path d="M58.6408 17.7515H64.0794L74.2186 45.3561H68.7023L66.1383 38.4744H56.5043L53.9792 45.3561H48.4629L58.6408 17.7515ZM65.1672 34.703L61.3601 23.3113L57.3977 34.703H65.1672Z" fill="#1666DD"/>
<path d="M111.057 17.752H116.495L126.635 45.3566H121.118L118.554 38.4749H108.92L106.395 45.3566H100.879L111.057 17.752ZM117.583 34.7035L113.776 23.3118L109.814 34.7035H117.583Z" fill="#1666DD"/>
<path d="M161.664 17.7515H167.103L177.242 45.3561H171.726L169.162 38.4744H159.528L157.003 45.3561H151.486L161.664 17.7515ZM168.191 34.703L164.384 23.3113L160.421 34.703H168.191Z" fill="#1666DD"/>
<path d="M22.2559 45.3492V17.7903H27.6154V30.8895L39.189 17.7515H45.0923L34.5285 29.9955L45.7525 45.3492H39.6939L31.1108 33.455L27.6154 37.1088V45.3492H22.2559Z" fill="white"/>
</svg>
