<svg width="30" height="30" viewBox="0 0 30 30" fill="none" xmlns="http://www.w3.org/2000/svg">
<path d="M26.3342 6.5375C24.3217 6.3375 22.3092 6.1875 20.2842 6.075V6.0625L20.0092 4.4375C19.8217 3.2875 19.5467 1.5625 16.6217 1.5625H13.3467C10.4342 1.5625 10.1592 3.2125 9.95916 4.425L9.69666 6.025C8.53416 6.1 7.37166 6.175 6.20916 6.2875L3.65916 6.5375C3.13416 6.5875 2.75916 7.05 2.80916 7.5625C2.85916 8.075 3.30916 8.45 3.83416 8.4L6.38416 8.15C12.9342 7.5 19.5342 7.75 26.1592 8.4125C26.1967 8.4125 26.2217 8.4125 26.2592 8.4125C26.7342 8.4125 27.1467 8.05 27.1967 7.5625C27.2342 7.05 26.8592 6.5875 26.3342 6.5375Z" fill="white"/>
<path d="M24.0377 10.175C23.7377 9.8625 23.3252 9.6875 22.9002 9.6875H7.10018C6.67518 9.6875 6.25018 9.8625 5.96268 10.175C5.67518 10.4875 5.51268 10.9125 5.53768 11.35L6.31268 24.175C6.45018 26.075 6.62518 28.45 10.9877 28.45H19.0127C23.3752 28.45 23.5502 26.0875 23.6877 24.175L24.4627 11.3625C24.4877 10.9125 24.3252 10.4875 24.0377 10.175ZM17.0752 22.1875H12.9127C12.4002 22.1875 11.9752 21.7625 11.9752 21.25C11.9752 20.7375 12.4002 20.3125 12.9127 20.3125H17.0752C17.5877 20.3125 18.0127 20.7375 18.0127 21.25C18.0127 21.7625 17.5877 22.1875 17.0752 22.1875ZM18.1252 17.1875H11.8752C11.3627 17.1875 10.9377 16.7625 10.9377 16.25C10.9377 15.7375 11.3627 15.3125 11.8752 15.3125H18.1252C18.6377 15.3125 19.0627 15.7375 19.0627 16.25C19.0627 16.7625 18.6377 17.1875 18.1252 17.1875Z" fill="white"/>
</svg>
