<svg width="28" height="21" viewBox="0 0 28 21" fill="none" xmlns="http://www.w3.org/2000/svg">
<g opacity="0.6" clip-path="url(#clip0_451_4046)">
<path fill-rule="evenodd" clip-rule="evenodd" d="M2.76906 0.103696C1.73799 0.290498 0.75401 1.05707 0.31522 2.01532C0.00282199 2.6975 0.000488281 2.73765 0.000488281 7.47709V11.8054L0.385019 11.9816C1.69327 12.5807 3.09392 12.7595 3.83217 12.4216C4.2577 12.2267 4.53753 11.9164 4.66769 11.4951C4.76645 11.1753 4.77398 11.0025 4.77398 9.06146V6.972H6.23254H7.69111V9.08634C7.69111 10.2784 7.66788 11.3252 7.6378 11.4863C7.56281 11.8881 7.31236 12.3713 7.03125 12.6564C6.57162 13.1226 5.62997 13.5072 4.74746 13.589C3.99229 13.659 2.25151 13.6249 1.56513 13.5266C0.967862 13.4411 0.303764 13.3173 0.0933061 13.2522C0.00552696 13.225 0.000488281 13.4187 0.000488281 16.8102V20.3969L2.77176 20.3771C5.79381 20.3555 5.73514 20.3611 6.43239 20.0315C7.37144 19.5877 8.02313 18.8014 8.27798 17.8048C8.37743 17.4162 8.38061 17.1321 8.38061 8.71379V0.0239258L5.76845 0.0286991C3.85057 0.0322527 3.05335 0.0521423 2.76906 0.103696ZM12.2426 0.0811017C11.2445 0.227489 10.2615 0.929722 9.78487 1.83668C9.40553 2.55854 9.38835 2.71379 9.38835 5.42194V7.83282L9.5342 7.73624C10.21 7.2888 10.8294 7.05108 11.7486 6.88619C12.5709 6.73863 14.4733 6.75025 15.4613 6.90883C15.8697 6.97439 16.3351 7.05771 16.4955 7.09399L16.7873 7.15997L16.8021 7.86783C16.8138 8.42654 16.8026 8.56985 16.7491 8.54784C15.4347 8.00806 14.8744 7.87366 13.9392 7.87366C12.9915 7.87366 12.352 8.09361 11.9025 8.5742C11.1096 9.42192 11.1025 10.9741 11.8877 11.826C12.3273 12.3029 12.9986 12.5411 13.9031 12.5411C14.7687 12.5411 15.5104 12.3721 16.3828 11.9761C16.598 11.8784 16.783 11.7985 16.7939 11.7985C16.8048 11.7985 16.8138 12.1168 16.8138 12.5059V13.2132L16.4558 13.2995C15.4258 13.548 14.7504 13.6212 13.4723 13.6232C12.4929 13.6247 12.118 13.6048 11.7221 13.5304C10.8983 13.3755 10.0597 13.0529 9.61732 12.7209C9.52445 12.6511 9.43492 12.5941 9.41842 12.5941C9.40187 12.5941 9.38835 14.3484 9.38835 16.4925V20.3908L11.974 20.389C14.9889 20.3868 15.1348 20.3719 15.9086 19.9882C16.5844 19.653 17.0773 19.168 17.3891 18.5314C17.7977 17.6969 17.7685 18.4508 17.7685 8.73766V0.0239258L15.1563 0.0303966C13.7197 0.0339502 12.4084 0.0567569 12.2426 0.0811017ZM21.6178 0.0801467C20.2841 0.303387 19.1605 1.33897 18.8588 2.62282C18.7937 2.89963 18.7776 3.36203 18.777 4.96979L18.7762 6.972L21.4944 6.97328C23.161 6.97407 24.3042 6.99566 24.4491 7.02907C25.2919 7.2233 25.784 7.77989 25.784 8.53903C25.784 9.27171 25.3516 9.78682 24.5163 10.0493C24.2679 10.1273 24.2416 10.1456 24.3718 10.1501C24.8104 10.1652 25.4184 10.4225 25.7421 10.7301C26.4909 11.4417 26.2827 12.679 25.333 13.1615C24.7448 13.4604 24.7595 13.4591 21.6536 13.4819L18.7762 13.5031V16.9499V20.3968L21.574 20.3783C24.703 20.3577 24.5779 20.3716 25.349 19.9593C26.2851 19.4588 26.8616 18.6927 27.0733 17.6678C27.1466 17.3129 27.1563 16.2604 27.1563 8.64495V0.0239258L24.5177 0.0301842C23.0664 0.0335786 21.7614 0.0560671 21.6178 0.0801467ZM20.4204 8.80184V9.62394H21.4198C22.3572 9.62394 22.4333 9.61646 22.6473 9.50328C23.1993 9.2114 23.2224 8.41116 22.6883 8.08555C22.5312 7.98976 22.4196 7.98011 21.4679 7.97995L20.4204 7.97974V8.80184ZM20.4324 11.5201L20.4469 12.4085H21.5647H22.6825L22.9025 12.2628C23.1804 12.0788 23.2997 11.8499 23.2997 11.5001C23.2997 11.1591 23.1575 10.9112 22.8688 10.749C22.6717 10.6382 22.5977 10.6317 21.539 10.6317H20.4179L20.4324 11.5201Z" fill="#292929"/>
</g>
<defs>
<clipPath id="clip0_451_4046">
<rect width="27.1558" height="20.4199" fill="white"/>
</clipPath>
</defs>
</svg>
