<svg width="32" height="20" viewBox="0 0 32 20" fill="none" xmlns="http://www.w3.org/2000/svg">
<g opacity="0.6">
<path fill-rule="evenodd" clip-rule="evenodd" d="M15.5 1.64702C12.7889 3.43576 11 6.50897 11 10C11 13.491 12.7889 16.5642 15.5 18.353C13.9221 19.394 12.0318 20 10 20C4.47715 20 0 15.5228 0 10C0 4.47715 4.47715 0 10 0C12.0318 0 13.9221 0.605962 15.5 1.64702Z" fill="#292929"/>
<path fill-rule="evenodd" clip-rule="evenodd" d="M15.6372 2.28505C13.4158 4.11921 12 6.89426 12 10C12 13.1057 13.4158 15.8808 15.6372 17.715C18.2515 16.1402 20 13.2743 20 10C20 6.72569 18.2515 3.85977 15.6372 2.28505ZM16.5 18.353C18.0779 19.394 19.9682 20 22 20C27.5228 20 32 15.5228 32 10C32 4.47715 27.5228 0 22 0C19.9682 0 18.0779 0.605961 16.5 1.64702C19.2111 3.43576 21 6.50897 21 10C21 13.491 19.2111 16.5642 16.5 18.353Z" fill="#292929"/>
</g>
</svg>
