<svg width="75" height="20" viewBox="0 0 75 20" fill="none" xmlns="http://www.w3.org/2000/svg">
<g opacity="0.6" clip-path="url(#clip0_451_4048)">
<path d="M53.356 9.01221V20.2442H59.6636V13.5882H66.8124C69.819 13.5674 72.3737 11.6642 73.3408 9.01221H53.356Z" fill="#292929"/>
<path d="M52.5151 -0.244141C52.8831 4.34226 57.2774 7.97186 62.639 7.97186C62.66 7.97186 73.6039 7.97186 73.6039 7.97186C73.688 7.55586 73.73 7.11906 73.73 6.67186C73.73 2.86546 70.6287 -0.212941 66.7916 -0.244141H52.5151Z" fill="#292929"/>
<path d="M43.1798 7.85746C43.2534 7.73266 43.369 7.65986 43.5162 7.65986C43.7265 7.65986 43.8842 7.82626 43.8947 8.02386V20.1399H50.2024V-0.244141H43.8947C43.0957 -0.212941 42.1916 0.359059 41.8552 1.07666L36.8406 11.7263C36.8301 11.7679 36.809 11.8095 36.788 11.8511C36.7144 11.9551 36.5883 12.0279 36.4411 12.0279C36.2098 12.0279 36.0206 11.8407 36.0206 11.6119V-0.244141H29.7129V20.1399H36.0206C36.809 20.0983 37.6921 19.5263 38.0285 18.8191L43.1798 7.88866C43.1693 7.87826 43.1798 7.86786 43.1798 7.85746Z" fill="#292929"/>
<path d="M19.631 8.21121L15.941 20.14H11.3995L7.71998 8.20081C7.68844 8.01361 7.52023 7.86801 7.30998 7.86801C7.07869 7.86801 6.89998 8.05521 6.89998 8.27361V20.1296H0.592285V-0.254395H6.00639H7.61485C8.77126 -0.254395 9.99075 0.640006 10.3272 1.73201L13.3969 11.664C13.5546 12.1632 13.7964 12.1528 13.9541 11.664L17.0238 1.73201C17.3602 0.629606 18.5797 -0.254395 19.7361 -0.254395H21.3446H26.7587V20.1296H20.451V8.27361C20.451 8.27361 20.451 8.27361 20.451 8.26321C20.451 8.03441 20.2618 7.85761 20.041 7.85761C19.8307 7.86801 19.6625 8.01361 19.631 8.21121Z" fill="#292929"/>
</g>
<defs>
<clipPath id="clip0_451_4048">
<rect width="74" height="20" fill="white" transform="translate(0.155762)"/>
</clipPath>
</defs>
</svg>
