<svg width="62" height="20" viewBox="0 0 62 20" fill="none" xmlns="http://www.w3.org/2000/svg">
<g opacity="0.6" clip-path="url(#clip0_451_4044)">
<path fill-rule="evenodd" clip-rule="evenodd" d="M39.1977 0.043217C36.8538 0.341631 35.1756 1.03984 33.8945 2.2497C33.0378 3.05873 32.5152 3.92211 32.2472 4.97129C31.8934 6.3566 32.0353 7.6037 32.6697 8.68322C32.9872 9.22356 34.0293 10.2523 34.7199 10.7072C35.042 10.9194 35.8379 11.3708 36.4887 11.7105C37.8312 12.4111 37.9997 12.5177 38.4625 12.9588C38.8979 13.3736 39.0134 13.6065 39.0131 14.0689C39.0126 14.9114 38.4058 15.5013 37.195 15.8365C36.8575 15.9299 36.5064 15.9582 35.7188 15.9552C34.1591 15.9494 33.0729 15.7144 31.5901 15.062C31.2137 14.8963 30.8992 14.7681 30.8912 14.7769C30.8832 14.7858 30.6865 15.693 30.454 16.793C30.2216 17.893 30.0157 18.844 29.9966 18.9063C29.9231 19.1466 31.8641 19.6866 33.5468 19.894C34.5474 20.0174 36.4816 20.0325 37.3722 19.924C38.1472 19.8295 39.3352 19.5317 40.0642 19.2492C41.702 18.6145 43.0272 17.4303 43.707 15.9938C44.104 15.1547 44.2427 14.5133 44.2494 13.4827C44.2579 12.1874 44.0312 11.4756 43.3004 10.5024C42.6995 9.70211 41.8266 9.06942 39.8345 7.99032C37.7152 6.84232 37.3033 6.4737 37.3033 5.72487C37.3033 5.08363 37.7294 4.61211 38.6122 4.27653C39.1398 4.07598 40.5473 4.00777 41.493 4.13701C42.2294 4.23763 43.3539 4.54094 43.9205 4.79184C44.1384 4.88832 44.3218 4.95908 44.3281 4.94908C44.3448 4.9226 45.1911 0.930596 45.1911 0.878252C45.1911 0.801079 43.9185 0.422321 43.0404 0.238183C42.3333 0.0898379 41.9682 0.0567344 40.8166 0.0365965C40.0588 0.0233551 39.3303 0.0263204 39.1977 0.043217ZM0.0573243 0.515286C0.0510554 0.611148 0.043271 0.738459 0.0401021 0.798252C0.0357621 0.881217 0.254691 0.963493 0.964384 1.14542C3.18777 1.71542 5.03696 2.48136 5.55362 3.04625C5.70959 3.2168 5.87823 3.47784 5.92831 3.62639C5.97839 3.77494 6.93767 7.44991 8.06001 11.793L10.1007 19.6896H12.7686H15.4366L19.4638 10.0711C21.6788 4.78094 23.4911 0.427976 23.4911 0.397838C23.4911 0.367769 22.3106 0.351217 20.8678 0.361148L18.2444 0.379217L16.8694 3.86198C13.9105 11.3561 13.0735 13.4558 13.0533 13.4351C13.0418 13.4234 12.5489 10.8449 11.958 7.70529C11.2507 3.94742 10.8344 1.89211 10.7397 1.69032C10.522 1.22653 10.0988 0.788872 9.65913 0.572734L9.26549 0.379217L4.66716 0.360114L0.0688287 0.340941L0.0573243 0.515286ZM25.6613 0.430941C25.6168 0.559769 21.5622 19.575 21.5622 19.6552C21.5622 19.6998 22.441 19.7238 24.0594 19.7234L26.5566 19.7227L28.6091 10.0854C29.738 4.78494 30.6602 0.424941 30.6586 0.396459C30.6569 0.367976 29.5385 0.344734 28.1734 0.344734C26.2494 0.344734 25.6845 0.364114 25.6613 0.430941ZM52.9273 0.472665C52.4528 0.637424 52.0771 0.9057 51.8231 1.26108C51.6751 1.46804 44.6914 17.9868 44.083 19.5689L44.0234 19.724L46.6567 19.7239L49.2899 19.7238L49.8066 18.2929L50.3233 16.862L53.5342 16.844L56.7452 16.8261L56.8868 17.4992C56.9646 17.8694 57.1002 18.5215 57.188 18.9482L57.3477 19.724H59.6751H62.0026L61.9638 19.5689C61.9426 19.4835 61.0322 15.1309 59.9408 9.89646L57.9564 0.379217L55.621 0.363769C53.5235 0.349907 53.249 0.36101 52.9273 0.472665ZM53.1157 9.15749C52.4197 11.0811 51.8366 12.6939 51.82 12.7413C51.7961 12.809 52.2273 12.8275 53.8292 12.8275C55.5732 12.8275 55.8688 12.8129 55.8688 12.7266C55.8688 12.6091 54.4328 5.7117 54.4018 5.68073C54.3904 5.66929 53.8116 7.23384 53.1157 9.15749Z" fill="#292929"/>
</g>
<defs>
<clipPath id="clip0_451_4044">
<rect width="62" height="20" fill="white"/>
</clipPath>
</defs>
</svg>
