<svg width="15" height="12" viewBox="0 0 15 12" fill="none" xmlns="http://www.w3.org/2000/svg">
<path fill-rule="evenodd" clip-rule="evenodd" d="M7.5 0C10.1909 0 12.5665 1.82431 14.6334 5.35764L14.7879 5.62584L15 6L14.6334 6.64236C12.5665 10.1757 10.1909 12 7.5 12C4.80911 12 2.43348 10.1757 0.366558 6.64236L0.212118 6.37416L0 6L0.212118 5.62584C2.31489 1.91667 4.74184 0 7.5 0ZM7.49971 1.5C5.4724 1.5 3.54593 2.93665 1.7287 6C3.54593 9.06335 5.4724 10.5 7.49971 10.5C9.47197 10.5 11.3464 9.14255 13.115 6.25854L13.2708 6.0001L13.1148 5.7415C11.3434 2.85576 9.46912 1.5 7.49971 1.5ZM7.49902 3.75C8.74166 3.75 9.74902 4.75736 9.74902 6C9.74902 7.24264 8.74166 8.25 7.49902 8.25C6.25638 8.25 5.24902 7.24264 5.24902 6C5.24902 4.75736 6.25638 3.75 7.49902 3.75Z" fill="#292929"/>
</svg>
