<svg width="12" height="14" viewBox="0 0 12 14" fill="none" xmlns="http://www.w3.org/2000/svg">
<path d="M10.9918 3.0175L10.6938 2.124C10.5803 1.7837 10.2629 1.55505 9.90429 1.55505H7.3991V0.739414C7.3991 0.331753 7.06766 0 6.6601 0H4.36595C3.95849 0 3.62695 0.331753 3.62695 0.739414V1.55505H1.12186C0.763118 1.55505 0.445785 1.7837 0.332282 2.124L0.0342095 3.0175C-0.0336655 3.22092 0.000735487 3.44617 0.126083 3.62013C0.25143 3.79409 0.45423 3.89802 0.66867 3.89802H0.980235L1.66599 12.3778C1.71697 13.0071 2.25091 13.5 2.88176 13.5H8.28343C8.91418 13.5 9.44822 13.0071 9.4991 12.3777L10.1849 3.89802H10.3574C10.5718 3.89802 10.7746 3.79409 10.9 3.62024C11.0253 3.44627 11.0597 3.22092 10.9918 3.0175ZM4.41796 0.791016H6.60809V1.55505H4.41796V0.791016ZM8.71066 12.314C8.69274 12.5355 8.50508 12.709 8.28343 12.709H2.88176C2.66011 12.709 2.47245 12.5355 2.45453 12.314L1.77383 3.89802H9.39127L8.71066 12.314ZM0.838306 3.107L1.08272 2.37428C1.08828 2.35739 1.10404 2.34606 1.12186 2.34606H9.90429C9.92211 2.34606 9.93777 2.35739 9.94343 2.37428L10.1878 3.107H0.838306Z" fill="#E00000"/>
<path d="M7.44915 12.2859C7.45616 12.2863 7.46306 12.2864 7.47006 12.2864C7.67904 12.2864 7.85373 12.1227 7.86464 11.9115L8.23605 4.78189C8.24738 4.56374 8.0797 4.37762 7.86166 4.36629C7.64299 4.35465 7.4575 4.52254 7.44606 4.74069L7.07476 11.8703C7.06343 12.0885 7.23101 12.2746 7.44915 12.2859Z" fill="#E00000"/>
<path d="M3.18052 11.9124C3.19206 12.1232 3.36654 12.2864 3.57511 12.2864C3.58231 12.2864 3.58973 12.2862 3.59704 12.2858C3.81509 12.2739 3.98225 12.0875 3.97041 11.8693L3.58139 4.73969C3.56954 4.52154 3.38312 4.35438 3.16497 4.36633C2.94693 4.37817 2.77976 4.56459 2.79161 4.78274L3.18052 11.9124Z" fill="#E00000"/>
<path d="M5.51855 12.2864C5.73701 12.2864 5.91406 12.1093 5.91406 11.8909V4.76123C5.91406 4.54277 5.73701 4.36572 5.51855 4.36572C5.3001 4.36572 5.12305 4.54277 5.12305 4.76123V11.8909C5.12305 12.1093 5.3001 12.2864 5.51855 12.2864Z" fill="#E00000"/>
</svg>
