<svg width="20" height="20" viewBox="0 0 20 20" fill="none" xmlns="http://www.w3.org/2000/svg">
<rect width="20" height="20" rx="10" fill="#1666DD"/>
<path d="M15.1071 6H4.89286C4.84126 5.99999 4.79017 6.01014 4.7425 6.02988C4.69483 6.04962 4.65152 6.07855 4.61504 6.11504C4.57855 6.15152 4.54962 6.19483 4.52988 6.2425C4.51014 6.29017 4.49999 6.34126 4.5 6.39286V13.4643C4.49999 13.5159 4.51014 13.567 4.52988 13.6146C4.54962 13.6623 4.57855 13.7056 4.61504 13.7421C4.65152 13.7786 4.69483 13.8075 4.7425 13.8273C4.79017 13.847 4.84126 13.8572 4.89286 13.8571H15.1071C15.1587 13.8572 15.2098 13.847 15.2575 13.8273C15.3052 13.8075 15.3485 13.7786 15.385 13.7421C15.4214 13.7056 15.4504 13.6623 15.4701 13.6146C15.4899 13.567 15.5 13.5159 15.5 13.4643V6.39286C15.5 6.34126 15.4899 6.29017 15.4701 6.2425C15.4504 6.19483 15.4214 6.15152 15.385 6.11504C15.3485 6.07855 15.3052 6.04962 15.2575 6.02988C15.2098 6.01014 15.1587 5.99999 15.1071 6ZM13.7536 8.29114L10.2179 10.6483C10.1534 10.6913 10.0776 10.7143 10 10.7143C9.92244 10.7143 9.84662 10.6913 9.78209 10.6483L6.24638 8.29114C6.16083 8.23286 6.10174 8.14318 6.08195 8.04158C6.06217 7.93998 6.08327 7.83467 6.14069 7.74855C6.19811 7.66242 6.2872 7.60244 6.3886 7.58163C6.48999 7.56083 6.5955 7.58088 6.6822 7.63743L10 9.84916L13.3178 7.63743C13.4045 7.58084 13.51 7.56076 13.6114 7.58156C13.7129 7.60236 13.802 7.66235 13.8594 7.74849C13.9168 7.83463 13.9379 7.93995 13.9181 8.04157C13.8983 8.14319 13.8392 8.23288 13.7536 8.29114Z" fill="white"/>
</svg>
